<svg xmlns="http://www.w3.org/2000/svg" xmlns:xlink="http://www.w3.org/1999/xlink" width="405.37" height="104.51" viewBox="0 0 405.37 104.51"><defs><linearGradient id="a" x1="101.97" y1="74.28" x2="462.18" y2="74.28" gradientTransform="matrix(1, 0, 0, -1, 0, 154.85)" gradientUnits="userSpaceOnUse"><stop offset="0" stop-color="#578080"/><stop offset="0.13" stop-color="#778080"/><stop offset="0.26" stop-color="#5b8080"/><stop offset="0.41" stop-color="#6e807e"/><stop offset="0.52" stop-color="gray"/><stop offset="0.61" stop-color="#80806d"/><stop offset="0.76" stop-color="#84805e"/><stop offset="1" stop-color="#86805f"/></linearGradient></defs><path d="M88,86.88H83.67a1.81,1.81,0,0,1-1.73-1.27l-1.56-4.89a1.82,1.82,0,0,0-1.74-1.26h-9.2a1.81,1.81,0,0,0-1.73,1.27l-1.55,4.88a1.81,1.81,0,0,1-1.73,1.27H60.22a1.81,1.81,0,0,1-1.71-2.44L69.33,54.71a1.81,1.81,0,0,1,1.7-1.2h6.33a1.86,1.86,0,0,1,1.75,1.24l10.56,29.7A1.82,1.82,0,0,1,88,86.88ZM73.31,62.47l-2.83,8.84a1.82,1.82,0,0,0,1.73,2.38h3.55a1.82,1.82,0,0,0,1.73-2.38l-2.82-8.84m-1.33-.09,0,.09" transform="translate(-58.4 -28.31)" fill="#262527"/><path d="M113.66,86.88H111a1.82,1.82,0,0,1-1.52-.82L100,71.63a22.46,22.46,0,0,1-1.22-2h-.07c.09.85.14,2.16.14,3.92V85.06A1.82,1.82,0,0,1,97,86.88H95.48a1.81,1.81,0,0,1-1.82-1.82V64.43a1.82,1.82,0,0,1,1.82-1.82h3.08a1.8,1.8,0,0,1,1.52.83l9.09,14c.44.66.85,1.32,1.22,2h.07a25.88,25.88,0,0,1-.14-3.34V64.43a1.83,1.83,0,0,1,1.82-1.82h1.52a1.82,1.82,0,0,1,1.82,1.82V85.06A1.81,1.81,0,0,1,113.66,86.88Z" transform="translate(-58.4 -28.31)" fill="#262527"/><path d="M133.76,86.88H122.85A1.82,1.82,0,0,1,121,85.06V64.43a1.83,1.83,0,0,1,1.82-1.82H133.2A1.82,1.82,0,0,1,135,64.43v.81a1.81,1.81,0,0,1-1.82,1.82h-4.89a1.82,1.82,0,0,0-1.81,1.82v1.76a1.81,1.81,0,0,0,1.81,1.82h4.3a1.82,1.82,0,0,1,1.82,1.82v.8a1.82,1.82,0,0,1-1.82,1.82h-4.3a1.81,1.81,0,0,0-1.81,1.82v1.91a1.82,1.82,0,0,0,1.81,1.82h5.45a1.81,1.81,0,0,1,1.82,1.82v.79A1.81,1.81,0,0,1,133.76,86.88Z" transform="translate(-58.4 -28.31)" fill="#262527"/><path d="M139.6,86.48a1.85,1.85,0,0,1-1.25-1.74V80.53a10.58,10.58,0,0,0,3.2,1.86A10.32,10.32,0,0,0,145,83a7.89,7.89,0,0,0,1.8-.19,4.51,4.51,0,0,0,1.29-.52,2.29,2.29,0,0,0,.77-.78,2,2,0,0,0,.25-1,2.12,2.12,0,0,0-.41-1.27,4.57,4.57,0,0,0-1.1-1,11.18,11.18,0,0,0-1.67-.91c-.64-.3-1.34-.6-2.08-.9a10.58,10.58,0,0,1-4.24-2.89,6.33,6.33,0,0,1-1.4-4.13,6.55,6.55,0,0,1,.77-3.26,6.26,6.26,0,0,1,2.07-2.24,9.2,9.2,0,0,1,3-1.3,15.35,15.35,0,0,1,3.65-.41,21.11,21.11,0,0,1,3.36.23,13,13,0,0,1,2.7.7V68.2a9,9,0,0,0-1.33-.75,11.35,11.35,0,0,0-1.48-.53,10.51,10.51,0,0,0-1.52-.31,10.33,10.33,0,0,0-1.43-.1,7.39,7.39,0,0,0-1.69.17,4.56,4.56,0,0,0-1.28.5,2.65,2.65,0,0,0-.82.77,2,2,0,0,0,0,2.1,3.76,3.76,0,0,0,.91.92,11.46,11.46,0,0,0,1.44.84c.56.28,1.2.56,1.91.86A20.63,20.63,0,0,1,151.21,74a9.19,9.19,0,0,1,2,1.55,5.8,5.8,0,0,1,1.27,2,7,7,0,0,1,.44,2.58,6.83,6.83,0,0,1-.77,3.41A6.24,6.24,0,0,1,152,85.71,8.86,8.86,0,0,1,149,86.93a17.55,17.55,0,0,1-3.69.38,21,21,0,0,1-3.8-.34A14.66,14.66,0,0,1,139.6,86.48Z" transform="translate(-58.4 -28.31)" fill="#262527"/><path d="M174.11,67.06h-3.28A1.83,1.83,0,0,0,169,68.88V85.06a1.81,1.81,0,0,1-1.82,1.82h-1.84a1.81,1.81,0,0,1-1.82-1.82V68.88a1.83,1.83,0,0,0-1.82-1.82h-3.25a1.82,1.82,0,0,1-1.82-1.82v-.81a1.83,1.83,0,0,1,1.82-1.82h15.65a1.82,1.82,0,0,1,1.82,1.82v.81A1.81,1.81,0,0,1,174.11,67.06Z" transform="translate(-58.4 -28.31)" fill="#262527"/><path d="M191.93,86.88H181a1.82,1.82,0,0,1-1.82-1.82V64.43A1.83,1.83,0,0,1,181,62.61h10.36a1.83,1.83,0,0,1,1.82,1.82v.81a1.82,1.82,0,0,1-1.82,1.82h-4.89a1.82,1.82,0,0,0-1.82,1.82v1.76a1.81,1.81,0,0,0,1.82,1.82h4.3a1.82,1.82,0,0,1,1.81,1.82v.8a1.82,1.82,0,0,1-1.81,1.82h-4.3a1.81,1.81,0,0,0-1.82,1.82v1.91a1.82,1.82,0,0,0,1.82,1.82h5.44a1.81,1.81,0,0,1,1.82,1.82v.79A1.81,1.81,0,0,1,191.93,86.88Z" transform="translate(-58.4 -28.31)" fill="#262527"/><path d="M197.76,86.48a1.84,1.84,0,0,1-1.24-1.74V80.53a10.46,10.46,0,0,0,3.2,1.86,10.3,10.3,0,0,0,3.48.62,7.89,7.89,0,0,0,1.8-.19,4.39,4.39,0,0,0,1.29-.52,2.29,2.29,0,0,0,.77-.78,1.9,1.9,0,0,0,.25-1,2.11,2.11,0,0,0-.4-1.27,4.44,4.44,0,0,0-1.11-1,10.71,10.71,0,0,0-1.67-.91c-.64-.3-1.33-.6-2.08-.9a10.65,10.65,0,0,1-4.24-2.89,6.33,6.33,0,0,1-1.39-4.13,6.55,6.55,0,0,1,.76-3.26,6.44,6.44,0,0,1,2.07-2.24,9.29,9.29,0,0,1,3-1.3,15.41,15.41,0,0,1,3.65-.41,20.94,20.94,0,0,1,3.36.23,12.7,12.7,0,0,1,2.7.7V68.2a9,9,0,0,0-1.33-.75,10.85,10.85,0,0,0-1.48-.53,11.22,11.22,0,0,0-2.94-.41,7.33,7.33,0,0,0-1.69.17,4.51,4.51,0,0,0-1.29.5,2.5,2.5,0,0,0-.81.77,1.86,1.86,0,0,0-.29,1,1.94,1.94,0,0,0,.32,1.09,3.81,3.81,0,0,0,.92.92,10.62,10.62,0,0,0,1.43.84c.57.28,1.21.56,1.92.86A19.84,19.84,0,0,1,209.37,74a9.52,9.52,0,0,1,2,1.55,6.12,6.12,0,0,1,1.27,2,7,7,0,0,1,.44,2.58,6.93,6.93,0,0,1-.77,3.41,6.33,6.33,0,0,1-2.09,2.24,8.94,8.94,0,0,1-3.07,1.22,17.64,17.64,0,0,1-3.7.38,21.06,21.06,0,0,1-3.8-.34A15.11,15.11,0,0,1,197.76,86.48Z" transform="translate(-58.4 -28.31)" fill="#262527"/><path d="M234,65.25l-6.37,12.61a1.84,1.84,0,0,0-.2.82v6.38a1.81,1.81,0,0,1-1.81,1.82H223.8A1.81,1.81,0,0,1,222,85.06V78.77a1.84,1.84,0,0,0-.18-.8l-6.24-12.74a1.82,1.82,0,0,1,1.64-2.62h2.13a1.81,1.81,0,0,1,1.67,1.1l3.43,8c.07.17.26.83.56,2h.07a9.32,9.32,0,0,1,.52-1.92l3.5-8a1.83,1.83,0,0,1,1.67-1.09h1.64A1.82,1.82,0,0,1,234,65.25Z" transform="translate(-58.4 -28.31)" fill="#262527"/><path d="M238.21,86.48A1.84,1.84,0,0,1,237,84.74V80.53a10.46,10.46,0,0,0,3.2,1.86,10.3,10.3,0,0,0,3.48.62,7.89,7.89,0,0,0,1.8-.19,4.28,4.28,0,0,0,1.29-.52,2.29,2.29,0,0,0,.77-.78,1.9,1.9,0,0,0,.25-1,2.11,2.11,0,0,0-.4-1.27,4.44,4.44,0,0,0-1.11-1,10.71,10.71,0,0,0-1.67-.91c-.64-.3-1.33-.6-2.08-.9a10.61,10.61,0,0,1-4.23-2.89,6.28,6.28,0,0,1-1.4-4.13,6.55,6.55,0,0,1,.76-3.26,6.44,6.44,0,0,1,2.07-2.24,9.38,9.38,0,0,1,3-1.3,15.41,15.41,0,0,1,3.65-.41,20.94,20.94,0,0,1,3.36.23,12.7,12.7,0,0,1,2.7.7V68.2a9,9,0,0,0-1.33-.75,10.85,10.85,0,0,0-1.48-.53,11.22,11.22,0,0,0-2.94-.41,7.33,7.33,0,0,0-1.69.17,4.51,4.51,0,0,0-1.29.5,2.5,2.5,0,0,0-.81.77,1.86,1.86,0,0,0-.29,1,1.94,1.94,0,0,0,.32,1.09,3.81,3.81,0,0,0,.92.92,10.62,10.62,0,0,0,1.43.84c.57.28,1.21.56,1.92.86A19.84,19.84,0,0,1,249.82,74a9.26,9.26,0,0,1,2,1.55,6.12,6.12,0,0,1,1.27,2,7,7,0,0,1,.44,2.58,6.93,6.93,0,0,1-.77,3.41,6.33,6.33,0,0,1-2.09,2.24,8.94,8.94,0,0,1-3.07,1.22,17.64,17.64,0,0,1-3.7.38,21.06,21.06,0,0,1-3.8-.34A15.11,15.11,0,0,1,238.21,86.48Z" transform="translate(-58.4 -28.31)" fill="#262527"/><path d="M462.17,66.49v-.87l-145.35-.79v0l-3.92,11.31a.92.92,0,0,1-1.78-.16l-7-45a3.11,3.11,0,0,0-6.17.13L287.8,120.87a1,1,0,0,1-1.95.08L275.72,69.68a1.29,1.29,0,0,0-2.4-.38L257.53,97.46a1.3,1.3,0,0,1-1.13.66H102v.49l157.21,3,0,0v0h0v0l12.5-22.24a1.3,1.3,0,0,1,2.4.39l10,50.52a3.14,3.14,0,0,0,6.2-.26l10-88.43a1,1,0,0,1,1.91,0l7,45.46a1.81,1.81,0,0,0,3.49.32L319,69.23a1.29,1.29,0,0,1,1.21-.87Z" transform="translate(-58.4 -28.31)" fill="url(#a)"/><circle cx="403.83" cy="37.68" r="1.54" fill="#808780"/></svg>