<svg width="754" height="203" viewBox="0 0 754 203" fill="none" xmlns="http://www.w3.org/2000/svg">
<path d="M55.2029 113.766H47.1276C46.4075 113.767 45.706 113.528 45.1255 113.085C44.5451 112.641 44.1161 112.015 43.9012 111.299L40.9919 101.801C40.7703 101.087 40.3364 100.465 39.7531 100.025C39.1697 99.5855 38.4671 99.3502 37.7469 99.3537H20.5892C19.8691 99.3526 19.1676 99.5915 18.5871 100.035C18.0066 100.479 17.5777 101.105 17.3628 101.821L14.4721 111.299C14.2573 112.015 13.8283 112.641 13.2478 113.085C12.6674 113.528 11.9658 113.767 11.2457 113.766H3.39425C2.84767 113.77 2.30831 113.636 1.82251 113.375C1.33671 113.114 0.919008 112.735 0.605313 112.268C0.291619 111.802 0.0913111 111.264 0.0216091 110.699C-0.0480929 110.134 0.0148934 109.56 0.205157 109.027L20.3841 51.2793C20.6181 50.5983 21.0482 50.009 21.6155 49.5919C22.1829 49.1748 22.86 48.9501 23.5545 48.9484H35.3597C36.0759 48.9499 36.7741 49.1822 37.3584 49.6134C37.9428 50.0447 38.3847 50.6537 38.6234 51.357L58.3174 109.046C58.4974 109.573 58.555 110.136 58.4854 110.69C58.4159 111.245 58.2211 111.774 57.9172 112.234C57.6132 112.695 57.2088 113.074 56.7369 113.34C56.2651 113.607 55.7394 113.753 55.2029 113.766ZM27.8066 66.3523L22.5288 83.5231C22.3642 84.0533 22.3222 84.6164 22.4063 85.1667C22.4904 85.717 22.6982 86.2387 23.0128 86.6894C23.3273 87.1401 23.7397 87.507 24.2163 87.7601C24.6929 88.0133 25.2202 88.1455 25.7551 88.146H32.3758C32.9108 88.1455 33.438 88.0133 33.9146 87.7601C34.3912 87.507 34.8036 87.1401 35.1181 86.6894C35.4327 86.2387 35.6405 85.717 35.7246 85.1667C35.8087 84.6164 35.7668 84.0533 35.6022 83.5231L30.343 66.3523M27.8626 66.1775V66.3523Z" fill="#E9E9E9" fill-opacity="0.97"/>
<path d="M103.058 113.766H98.097C97.5349 113.766 96.9815 113.62 96.4867 113.342C95.9919 113.064 95.5712 112.663 95.2623 112.173L77.5825 84.1447C76.7597 82.8918 76.0002 81.5951 75.3072 80.2599H75.1767C75.3445 81.9109 75.4377 84.4555 75.4377 87.8741V110.231C75.4378 110.7 75.3482 111.165 75.1741 111.598C75.0001 112.03 74.745 112.423 74.4239 112.752C74.1028 113.081 73.722 113.34 73.3037 113.514C72.8854 113.688 72.438 113.774 71.9876 113.766H69.1528C68.7064 113.769 68.2639 113.679 67.851 113.502C67.4381 113.326 67.0629 113.065 66.7472 112.737C66.4315 112.408 66.1816 112.017 66.0119 111.587C65.8422 111.157 65.7561 110.696 65.7586 110.231V70.1594C65.7586 69.2218 66.1162 68.3226 66.7527 67.6597C67.3893 66.9967 68.2526 66.6242 69.1528 66.6242H74.8969C75.4615 66.623 76.0172 66.7701 76.5127 67.0519C77.0082 67.3337 77.4274 67.7411 77.7317 68.2364L94.6842 95.43C95.5047 96.712 96.2694 97.994 96.9594 99.3148H97.09C96.8688 97.1604 96.7816 94.9933 96.8289 92.8272V70.1594C96.8338 69.2234 97.1929 68.3272 97.8284 67.6653C98.4639 67.0034 99.3244 66.6293 100.223 66.6242H103.058C103.958 66.6242 104.821 66.9967 105.458 67.6597C106.094 68.3226 106.452 69.2218 106.452 70.1594V110.231C106.455 110.696 106.368 111.157 106.199 111.587C106.029 112.017 105.779 112.408 105.463 112.737C105.148 113.065 104.773 113.326 104.36 113.502C103.947 113.679 103.504 113.769 103.058 113.766Z" fill="#E9E9E9" fill-opacity="0.97"/>
<path d="M140.544 113.766H120.197C119.746 113.774 119.299 113.688 118.881 113.514C118.462 113.34 118.082 113.081 117.761 112.752C117.439 112.423 117.184 112.03 117.01 111.598C116.836 111.165 116.747 110.7 116.747 110.231V70.1594C116.752 69.2234 117.111 68.3272 117.746 67.6653C118.382 67.0034 119.242 66.6293 120.141 66.6242H139.499C140.393 66.6345 141.247 67.0114 141.875 67.6733C142.504 68.3352 142.856 69.2285 142.856 70.1594V71.7327C142.859 72.1977 142.773 72.6586 142.603 73.0886C142.433 73.5187 142.183 73.9094 141.868 74.2382C141.552 74.567 141.177 74.8273 140.764 75.0041C140.351 75.1808 139.908 75.2705 139.462 75.2679H130.342C129.445 75.273 128.587 75.6478 127.954 76.3102C127.322 76.9726 126.967 77.8688 126.967 78.8031V82.2217C126.964 82.685 127.05 83.1443 127.218 83.5731C127.387 84.0019 127.635 84.3917 127.949 84.7203C128.262 85.0488 128.635 85.3095 129.046 85.4874C129.457 85.6653 129.897 85.7569 130.342 85.7569H138.362C139.262 85.7569 140.125 86.1293 140.762 86.7923C141.398 87.4553 141.756 88.3544 141.756 89.292V90.8459C141.756 91.7835 141.398 92.6827 140.762 93.3457C140.125 94.0086 139.262 94.3811 138.362 94.3811H130.342C129.897 94.3811 129.457 94.4727 129.046 94.6506C128.635 94.8285 128.262 95.0892 127.949 95.4177C127.635 95.7462 127.387 96.1361 127.218 96.5649C127.05 96.9937 126.964 97.4529 126.967 97.9163V101.626C126.967 102.56 127.322 103.457 127.954 104.119C128.587 104.782 129.445 105.156 130.342 105.161H140.506C140.953 105.159 141.395 105.249 141.808 105.425C142.221 105.602 142.596 105.862 142.912 106.191C143.228 106.52 143.478 106.911 143.647 107.341C143.817 107.771 143.903 108.232 143.901 108.697V110.231C143.903 110.693 143.818 111.15 143.651 111.578C143.483 112.006 143.237 112.395 142.925 112.723C142.613 113.051 142.243 113.312 141.834 113.491C141.425 113.67 140.987 113.764 140.544 113.766Z" fill="#E9E9E9" fill-opacity="0.97"/>
<path d="M151.435 112.989C150.758 112.747 150.17 112.292 149.752 111.687C149.334 111.081 149.108 110.355 149.104 109.61V101.432C150.874 102.992 152.894 104.215 155.072 105.045C157.136 105.819 159.312 106.22 161.506 106.23C162.635 106.241 163.761 106.117 164.863 105.861C165.71 105.656 166.522 105.315 167.269 104.851C167.858 104.474 168.351 103.954 168.705 103.336C169.02 102.742 169.181 102.072 169.171 101.393C169.178 100.507 168.909 99.6414 168.406 98.9263C167.829 98.1666 167.136 97.5104 166.355 96.9839C165.367 96.3037 164.325 95.7123 163.24 95.2163C162.047 94.6336 160.741 94.0509 159.361 93.4682C156.323 92.3012 153.607 90.3733 151.454 87.8547C149.699 85.5871 148.773 82.7443 148.843 79.8326C148.786 77.6279 149.281 75.4458 150.279 73.5003C151.201 71.7407 152.528 70.246 154.139 69.1494C155.844 67.9665 157.739 67.1113 159.734 66.6242C161.964 66.076 164.25 65.8086 166.541 65.8279C168.638 65.8027 170.733 65.9521 172.807 66.2746C174.528 66.5384 176.216 66.9943 177.843 67.6343V77.4822C177.057 76.9243 176.227 76.437 175.362 76.0254C174.466 75.6163 173.544 75.2723 172.602 74.996C171.673 74.7228 170.725 74.5215 169.768 74.3938C168.884 74.2649 167.993 74.2 167.101 74.1996C166.041 74.1831 164.984 74.2939 163.949 74.5298C163.111 74.7261 162.306 75.0535 161.562 75.501C160.955 75.8798 160.434 76.3899 160.032 76.9966C159.669 77.6097 159.477 78.3159 159.477 79.0362C159.477 79.7565 159.669 80.4626 160.032 81.0757C160.495 81.769 161.069 82.3737 161.73 82.8627C162.586 83.4737 163.483 84.0191 164.415 84.4943C165.46 85.0382 166.653 85.582 167.977 86.1648C169.739 86.8936 171.447 87.7571 173.087 88.7482C174.458 89.5678 175.713 90.581 176.817 91.7589C177.855 92.8703 178.661 94.1928 179.186 95.6437C179.759 97.2456 180.038 98.9457 180.006 100.655C180.087 102.955 179.592 105.238 178.57 107.279C177.59 109.008 176.212 110.456 174.561 111.494C172.851 112.635 170.955 113.438 168.966 113.863C166.703 114.362 164.396 114.609 162.084 114.601C159.707 114.606 157.335 114.385 154.997 113.941C153.791 113.707 152.601 113.389 151.435 112.989Z" fill="#E9E9E9" fill-opacity="0.97"/>
<path d="M215.795 75.2679H209.678C208.776 75.2679 207.911 75.6397 207.271 76.3021C206.632 76.9646 206.27 77.8637 206.265 78.8031V110.231C206.267 110.696 206.181 111.157 206.012 111.587C205.842 112.017 205.592 112.408 205.276 112.737C204.961 113.065 204.585 113.326 204.173 113.502C203.76 113.679 203.317 113.769 202.871 113.766H199.439C198.993 113.769 198.55 113.679 198.137 113.502C197.724 113.326 197.349 113.065 197.034 112.737C196.718 112.408 196.468 112.017 196.298 111.587C196.129 111.157 196.042 110.696 196.045 110.231V78.8031C196.04 77.8671 195.681 76.9708 195.045 76.309C194.41 75.6471 193.549 75.273 192.651 75.2679H186.59C185.689 75.2679 184.826 74.8954 184.189 74.2325C183.553 73.5695 183.195 72.6703 183.195 71.7327V70.1594C183.2 69.2234 183.559 68.3272 184.195 67.6653C184.83 67.0034 185.691 66.6293 186.59 66.6242H215.776C216.676 66.6242 217.54 66.9967 218.176 67.6597C218.813 68.3226 219.17 69.2218 219.17 70.1594V71.7327C219.173 72.1961 219.087 72.6553 218.919 73.0841C218.75 73.5129 218.502 73.9028 218.188 74.2313C217.875 74.5598 217.502 74.8205 217.091 74.9984C216.68 75.1763 216.24 75.2679 215.795 75.2679Z" fill="#E9E9E9" fill-opacity="0.97"/>
<path d="M249.028 113.766H228.644C227.744 113.766 226.881 113.394 226.244 112.731C225.608 112.068 225.25 111.169 225.25 110.231V70.1594C225.255 69.2234 225.614 68.3272 226.25 67.6653C226.885 67.0034 227.746 66.6293 228.644 66.6242H247.965C248.864 66.6293 249.725 67.0034 250.36 67.6653C250.996 68.3272 251.355 69.2234 251.36 70.1594V71.7327C251.36 72.6703 251.002 73.5695 250.366 74.2325C249.729 74.8954 248.866 75.2679 247.965 75.2679H238.846C237.946 75.2679 237.082 75.6404 236.446 76.3033C235.809 76.9663 235.452 77.8655 235.452 78.8031V82.2217C235.449 82.6867 235.535 83.1475 235.705 83.5776C235.875 84.0077 236.125 84.3984 236.44 84.7272C236.756 85.056 237.131 85.3163 237.544 85.493C237.957 85.6698 238.399 85.7594 238.846 85.7569H246.865C247.762 85.762 248.621 86.1367 249.253 86.7991C249.886 87.4615 250.241 88.3578 250.241 89.292V90.8459C250.241 91.7802 249.886 92.6764 249.253 93.3388C248.621 94.0012 247.762 94.376 246.865 94.3811H238.846C238.399 94.3785 237.957 94.4682 237.544 94.6449C237.131 94.8217 236.756 95.082 236.44 95.4108C236.125 95.7396 235.875 96.1303 235.705 96.5604C235.535 96.9904 235.449 97.4513 235.452 97.9163V101.626C235.452 102.564 235.809 103.463 236.446 104.126C237.082 104.789 237.946 105.161 238.846 105.161H248.991C249.438 105.159 249.88 105.249 250.293 105.425C250.706 105.602 251.081 105.862 251.397 106.191C251.712 106.52 251.962 106.911 252.132 107.341C252.302 107.771 252.388 108.232 252.385 108.697V110.231C252.388 110.693 252.303 111.15 252.136 111.578C251.968 112.006 251.722 112.395 251.41 112.723C251.098 113.051 250.727 113.312 250.319 113.491C249.91 113.67 249.472 113.764 249.028 113.766Z" fill="#E9E9E9" fill-opacity="0.97"/>
<path d="M259.901 112.989C259.226 112.747 258.64 112.291 258.226 111.685C257.811 111.079 257.588 110.353 257.589 109.609V101.432C259.356 102.996 261.377 104.22 263.557 105.045C265.637 105.833 267.833 106.24 270.047 106.249C271.176 106.261 272.302 106.137 273.404 105.88C274.252 105.679 275.064 105.338 275.809 104.87C276.399 104.494 276.892 103.974 277.245 103.355C277.57 102.765 277.731 102.092 277.712 101.413C277.725 100.528 277.463 99.6626 276.966 98.9457C276.386 98.1811 275.686 97.5244 274.896 97.0033C273.91 96.3191 272.868 95.7276 271.781 95.2357C270.588 94.653 269.301 94.0703 267.902 93.4876C264.866 92.3156 262.152 90.3885 259.995 87.8741C258.246 85.6039 257.327 82.7613 257.402 79.852C257.34 77.649 257.828 75.467 258.82 73.5198C259.753 71.7684 261.077 70.2762 262.68 69.1688C264.387 67.9892 266.281 67.1342 268.275 66.6437C270.505 66.0965 272.791 65.8291 275.082 65.8473C277.179 65.8207 279.274 65.9701 281.348 66.294C283.07 66.5533 284.758 67.0093 286.384 67.6537V77.4822C285.598 76.9243 284.768 76.437 283.903 76.0254C283.008 75.6132 282.086 75.2692 281.143 74.996C279.357 74.4788 277.514 74.211 275.66 74.1996C274.601 74.1821 273.543 74.2929 272.508 74.5298C271.663 74.7227 270.852 75.0503 270.103 75.501C269.497 75.8744 268.981 76.3857 268.592 76.9966C268.238 77.5773 268.05 78.2511 268.051 78.939C268.043 79.691 268.251 80.4283 268.648 81.0563C269.117 81.75 269.698 82.3545 270.364 82.8433C271.21 83.4587 272.102 84.0042 273.031 84.4749C274.094 85.0187 275.287 85.5626 276.611 86.1453C278.319 86.8831 279.971 87.7532 281.553 88.7481C282.92 89.5744 284.174 90.5869 285.283 91.7589C286.308 92.8808 287.113 94.2004 287.652 95.6437C288.226 97.2455 288.504 98.9457 288.472 100.655C288.545 102.954 288.051 105.235 287.036 107.279C286.099 109.039 284.76 110.534 283.139 111.63C281.388 112.783 279.447 113.587 277.413 113.999C275.145 114.498 272.832 114.745 270.513 114.737C268.136 114.741 265.764 114.52 263.426 114.077C262.23 113.795 261.052 113.431 259.901 112.989Z" fill="#E9E9E9" fill-opacity="0.97"/>
<path d="M327.488 71.7522L315.608 96.2458C315.367 96.7395 315.239 97.2847 315.235 97.8386V110.231C315.237 110.694 315.152 111.154 314.983 111.582C314.815 112.011 314.566 112.401 314.253 112.73C313.939 113.058 313.566 113.319 313.155 113.497C312.744 113.675 312.304 113.766 311.859 113.766H308.465C308.022 113.764 307.583 113.67 307.175 113.491C306.766 113.312 306.395 113.051 306.083 112.723C305.772 112.395 305.525 112.006 305.358 111.578C305.19 111.15 305.105 110.693 305.108 110.231V98.0134C305.11 97.4757 304.995 96.9446 304.772 96.4595L293.135 71.7133C292.881 71.1736 292.764 70.5754 292.794 69.9753C292.824 69.3753 293 68.7931 293.307 68.2837C293.613 67.7744 294.038 67.3547 294.544 67.0643C295.049 66.774 295.616 66.6225 296.193 66.6243H300.166C300.829 66.6223 301.478 66.8239 302.032 67.2039C302.586 67.5839 303.02 68.1254 303.28 68.7609L309.677 84.3001C309.808 84.6303 310.162 85.9123 310.721 88.1849H310.852C311.047 86.9093 311.372 85.659 311.822 84.4555L318.349 68.9163C318.616 68.2875 319.052 67.7528 319.605 67.377C320.158 67.0012 320.804 66.8005 321.464 66.7991H324.522C325.074 66.8232 325.612 66.9872 326.089 67.2767C326.566 67.5663 326.968 67.9727 327.26 68.4606C327.552 68.9486 327.725 69.5035 327.765 70.077C327.805 70.6506 327.709 71.2256 327.488 71.7522Z" fill="#E9E9E9" fill-opacity="0.97"/>
<path d="M335.339 112.989C334.674 112.737 334.101 112.277 333.697 111.672C333.293 111.067 333.078 110.346 333.082 109.609V101.432C334.85 102.996 336.871 104.22 339.05 105.045C341.131 105.833 343.327 106.24 345.54 106.249C346.669 106.261 347.796 106.137 348.897 105.88C349.747 105.682 350.559 105.341 351.303 104.87C351.892 104.494 352.385 103.974 352.739 103.355C353.063 102.765 353.225 102.092 353.205 101.413C353.219 100.528 352.957 99.6626 352.459 98.9457C351.88 98.1811 351.18 97.5244 350.389 97.0033C349.403 96.3191 348.361 95.7276 347.275 95.2357C346.081 94.653 344.794 94.0703 343.396 93.4876C340.365 92.3156 337.657 90.3883 335.507 87.8741C333.744 85.6107 332.818 82.765 332.896 79.852C332.834 77.649 333.322 75.467 334.313 73.5198C335.247 71.7684 336.571 70.2762 338.174 69.1688C339.882 67.9924 341.776 67.1377 343.769 66.6437C345.999 66.0965 348.284 65.8291 350.576 65.8473C352.673 65.8207 354.768 65.9701 356.842 66.294C358.563 66.5533 360.252 67.0093 361.877 67.6537V77.4822C361.092 76.9243 360.262 76.437 359.397 76.0254C358.502 75.6132 357.58 75.2692 356.637 74.996C354.851 74.4788 353.007 74.211 351.154 74.1996C350.095 74.1821 349.037 74.2929 348.002 74.5298C347.157 74.7227 346.346 75.0503 345.596 75.501C344.991 75.8744 344.474 76.3857 344.086 76.9966C343.732 77.5773 343.544 78.2511 343.545 78.939C343.536 79.691 343.744 80.4283 344.142 81.0563C344.611 81.75 345.191 82.3545 345.857 82.8433C346.704 83.4587 347.596 84.0042 348.524 84.4749C349.587 85.0187 350.781 85.5626 352.105 86.1453C353.793 86.8858 355.427 87.7558 356.991 88.7481C358.361 89.5692 359.616 90.5823 360.721 91.7589C361.746 92.8808 362.551 94.2004 363.09 95.6437C363.663 97.2455 363.942 98.9457 363.91 100.655C363.983 102.954 363.488 105.235 362.474 107.279C361.537 109.039 360.198 110.534 358.576 111.63C356.826 112.783 354.884 113.587 352.851 113.999C350.582 114.498 348.269 114.745 345.951 114.737C343.574 114.741 341.202 114.52 338.864 114.077C337.667 113.795 336.49 113.431 335.339 112.989Z" fill="#E9E9E9" fill-opacity="0.97"/>
<path d="M753.016 74.1607V72.4709L481.944 70.9364L474.633 92.9049C474.509 93.2833 474.266 93.6073 473.944 93.8251C473.622 94.0428 473.239 94.1417 472.856 94.1059C472.474 94.0701 472.114 93.9017 471.834 93.6276C471.554 93.3535 471.371 92.9896 471.313 92.5941L458.259 5.1862C458.053 3.73033 457.344 2.40278 456.265 1.45279C455.186 0.502791 453.811 -0.0043121 452.398 0.0266864C450.986 0.057685 449.633 0.624652 448.593 1.62114C447.553 2.61763 446.899 3.97511 446.752 5.43871L427.822 179.788C427.747 180.223 427.532 180.617 427.212 180.907C426.892 181.197 426.487 181.364 426.064 181.383C425.64 181.401 425.224 181.268 424.882 181.006C424.541 180.745 424.295 180.37 424.186 179.944L405.294 80.357C405.202 79.849 404.962 79.3829 404.606 79.0227C404.25 78.6625 403.796 78.4258 403.306 78.3449C402.815 78.2641 402.313 78.3431 401.868 78.5712C401.422 78.7993 401.056 79.1652 400.818 79.6189L371.37 134.317C371.159 134.705 370.853 135.029 370.483 135.254C370.112 135.479 369.691 135.598 369.263 135.599H81.3124V136.551L374.503 142.378L397.815 99.1788C398.061 98.7348 398.431 98.3791 398.876 98.1593C399.32 97.9394 399.819 97.8657 400.304 97.9479C400.79 98.0301 401.24 98.2644 401.595 98.6196C401.95 98.9748 402.193 99.4341 402.291 99.9364L420.941 198.066C421.213 199.494 421.966 200.772 423.065 201.672C424.163 202.571 425.534 203.032 426.93 202.971C428.326 202.91 429.655 202.332 430.677 201.339C431.699 200.347 432.347 199.007 432.504 197.561L451.153 25.795C451.271 25.3992 451.508 25.053 451.828 24.8072C452.149 24.5614 452.536 24.4288 452.934 24.4288C453.332 24.4288 453.72 24.5614 454.04 24.8072C454.361 25.053 454.597 25.3992 454.715 25.795L467.77 114.096C467.89 114.865 468.253 115.571 468.8 116.102C469.347 116.633 470.048 116.96 470.793 117.031C471.538 117.103 472.285 116.914 472.916 116.495C473.547 116.077 474.026 115.451 474.279 114.718L486.009 79.4829C486.171 78.9927 486.475 78.5669 486.88 78.2642C487.284 77.9616 487.768 77.7969 488.266 77.793L753.016 74.1607Z" fill="url(#paint0_linear_1_23)"/>
<defs>
<linearGradient id="paint0_linear_1_23" x1="81.2564" y1="101.51" x2="753.035" y2="101.51" gradientUnits="userSpaceOnUse">
<stop stop-color="#578080"/>
<stop offset="0.13" stop-color="#778080"/>
<stop offset="0.26" stop-color="#5B8080"/>
<stop offset="0.41" stop-color="#6E807E"/>
<stop offset="0.52" stop-color="#808080"/>
<stop offset="0.61" stop-color="#80806D"/>
<stop offset="0.76" stop-color="#84805E"/>
<stop offset="1" stop-color="#86805F"/>
</linearGradient>
</defs>
</svg>
