<svg xmlns="http://www.w3.org/2000/svg" xmlns:xlink="http://www.w3.org/1999/xlink" width="436.94" height="352.4" viewBox="0 0 436.94 352.4"><defs><linearGradient id="a" x1="261.08" y1="138.03" x2="261.08" y2="380.48" gradientTransform="matrix(1, 0, 0, -1, 0, 414.85)" gradientUnits="userSpaceOnUse"><stop offset="0" stop-color="#1f8080"/><stop offset="1" stop-color="#3d8380"/></linearGradient></defs><path d="M63.25,362.75l-6.61,22.4c-1.17.18-2.34.31-3.51.4s-2.34.14-3.51.14-2.49-.05-3.71-.14a31.75,31.75,0,0,1-3.3-.4l31.56-97c1.17-.18,2.43-.31,3.78-.4s2.74-.13,4.18-.13c1.26,0,2.56,0,3.91.13s2.65.22,3.91.4l31.43,97c-1.08.18-2.29.31-3.64.4s-2.65.14-3.91.14-2.36-.05-3.58-.14-2.36-.22-3.44-.4l-43.56-22.4Zm3.64-12,35,18.22L81.59,301.25Z" transform="translate(-42.61 -34.36)" fill="#1f8080" fill-rule="evenodd"/><path d="M125.41,316c1-.18,2-.32,2.9-.4a27.48,27.48,0,0,1,2.9-.14,24.08,24.08,0,0,1,2.77.14c.85.08,1.77.22,2.76.4q.4,2,.81,5.46a50.63,50.63,0,0,1,.4,5.73,28.38,28.38,0,0,1,3.44-4.58,26.92,26.92,0,0,1,4.79-4.12,24.8,24.8,0,0,1,6.21-3,24.42,24.42,0,0,1,7.69-1.15q11.86,0,17.53,6.81t5.67,20.17v43.84a31.91,31.91,0,0,1-3.37.4c-1.26.09-2.39.13-3.38.13s-2.09,0-3.3-.13a31.63,31.63,0,0,1-3.31-.4V345c0-6.39-1-11.08-3-14.1s-5.13-4.52-9.45-4.52a19,19,0,0,0-7.14,1.35,15.93,15.93,0,0,0-5.94,4.19,20.7,20.7,0,0,0-4.11,7.35,33.41,33.41,0,0,0-1.56,10.86v35.07a31.42,31.42,0,0,1-3.3.4c-1.21.09-2.31.13-3.3.13s-2.12,0-3.38-.13a31.6,31.6,0,0,1-3.37-.4V316Z" transform="translate(-42.61 -34.36)" fill="#1f8080" fill-rule="evenodd"/><path d="M270.15,353.85q.27,11.34,5.87,16.59t16.52,5.26a49.56,49.56,0,0,0,18.21-3.37,20.19,20.19,0,0,1,1.75,4.93,31.88,31.88,0,0,1,.81,5.73,45.19,45.19,0,0,1-9.78,2.83,67.72,67.72,0,0,1-11.8.95,44.47,44.47,0,0,1-16.19-2.64A28.43,28.43,0,0,1,258,365.39,48.41,48.41,0,0,1,256,351a51.14,51.14,0,0,1,1.95-14.37,32.51,32.51,0,0,1,6-11.59,29,29,0,0,1,10.19-7.83,33.67,33.67,0,0,1,14.5-2.9,30.27,30.27,0,0,1,12.54,2.43,25.55,25.55,0,0,1,9,6.68,28.93,28.93,0,0,1,5.53,10.11,41.36,41.36,0,0,1,1.89,12.75c0,1.26-.05,2.58-.14,4s-.18,2.58-.27,3.57Zm34.26-10a25.65,25.65,0,0,0-1-7.22,18.52,18.52,0,0,0-3-6,14.36,14.36,0,0,0-5-4.11,15.6,15.6,0,0,0-7.22-1.55q-8.22,0-12.61,5t-5.33,13.89Z" transform="translate(-42.61 -34.36)" fill="#1f8080" fill-rule="evenodd"/><path d="M337,349.27,320.69,316a41.23,41.23,0,0,1,7-.54c1.26,0,2.49,0,3.71.14s2.49.22,3.84.4l14.3,33.45-17.27,35.75c-1.16.18-2.31.31-3.44.4s-2.22.14-3.3.14c-1.26,0-2.47-.05-3.64-.14s-2.38-.22-3.64-.4L337,349.27Zm13.62.13L365.07,316c1.26-.18,2.52-.31,3.78-.4s2.52-.14,3.77-.14a39.46,39.46,0,0,1,6.75.54l-16.05,32.91,18.74,36.29c-1.25.18-2.47.31-3.64.4s-2.38.14-3.64.14a39.25,39.25,0,0,1-6.74-.54Z" transform="translate(-42.61 -34.36)" fill="#1f8080" fill-rule="evenodd"/><path d="M393.59,326.47h-8.77a17.09,17.09,0,0,1-.4-2.49c-.09-1-.14-1.87-.14-2.77s.05-1.82.14-2.77a17.09,17.09,0,0,1,.4-2.49h21.85v69.2a31.75,31.75,0,0,1-3.3.4c-1.21.09-2.32.14-3.31.14s-1.95-.05-3.17-.14a31.75,31.75,0,0,1-3.3-.4V326.47Zm-3-25.76a26.51,26.51,0,0,1-.33-3.51c-.05-1.26-.07-2.38-.07-3.37s0-2.11.07-3.37a22.89,22.89,0,0,1,.33-3.37c1.17-.19,2.43-.32,3.78-.41s2.52-.13,3.51-.13,2.15,0,3.5.13a34.65,34.65,0,0,1,3.65.41,22.89,22.89,0,0,1,.33,3.37c.05,1.26.07,2.38.07,3.37s0,2.11-.07,3.37a26.51,26.51,0,0,1-.33,3.51c-1.08.18-2.27.31-3.58.4s-2.45.14-3.44.14-2.29-.05-3.64-.14S391.79,300.89,390.62,300.71Z" transform="translate(-42.61 -34.36)" fill="#1f8080" fill-rule="evenodd"/><path d="M447.31,386.76A33.94,33.94,0,0,1,433.15,384,28.07,28.07,0,0,1,423,376.38a31.8,31.8,0,0,1-6-11.47,53.37,53.37,0,0,1,0-28.59,31.8,31.8,0,0,1,6-11.47,28.93,28.93,0,0,1,10.12-7.69,36.84,36.84,0,0,1,28.32,0,28.93,28.93,0,0,1,10.12,7.69,31.65,31.65,0,0,1,6,11.47,53.11,53.11,0,0,1,0,28.59,31.65,31.65,0,0,1-6,11.47A28.07,28.07,0,0,1,461.47,384a33.88,33.88,0,0,1-14.16,2.76Zm0-10.65q9.31,0,13.76-6.75t4.45-18.75q0-12-4.45-18.68t-13.76-6.67q-9.3,0-13.69,6.67t-4.38,18.68q0,12,4.38,18.75T447.31,376.11Z" transform="translate(-42.61 -34.36)" fill="#1f8080" fill-rule="evenodd"/><path d="M192.39,316c1-.18,2-.32,2.9-.4a27.81,27.81,0,0,1,2.91-.14,24,24,0,0,1,2.76.14c.85.08,1.77.22,2.76.4q.41,2,.81,5.46a51,51,0,0,1,.41,5.73,27.8,27.8,0,0,1,3.44-4.58,26.58,26.58,0,0,1,4.79-4.12,24.75,24.75,0,0,1,13.89-4.11q11.87,0,17.53,6.81t5.67,20.17v43.84a31.6,31.6,0,0,1-3.37.4c-1.26.09-2.39.13-3.37.13s-2.1,0-3.31-.13a31.75,31.75,0,0,1-3.3-.4V345c0-6.39-1-11.08-3-14.1s-5.13-4.52-9.44-4.52a19.06,19.06,0,0,0-7.15,1.35,15.93,15.93,0,0,0-5.94,4.19,20.7,20.7,0,0,0-4.11,7.35,33.43,33.43,0,0,0-1.55,10.86v35.07a31.63,31.63,0,0,1-3.31.4c-1.21.09-2.31.13-3.3.13s-2.11,0-3.37-.13a31.8,31.8,0,0,1-3.38-.4Z" transform="translate(-42.61 -34.36)" fill="#1f8080" fill-rule="evenodd"/><path d="M323.1,93.58c-18.71-18.71-33.63-31.36-46.88-36.93L326,215.26c26.23-26.69,37.94-45.32,37.29-61.4-.67-16.68-14.88-35-40.14-60.28Zm-77-36.79c-13,5.41-28.23,17.42-47.61,36.8-28.18,28.18-40.4,47.81-39.58,64.69.79,16.36,14.09,34.05,37.16,57.41l50-158.9ZM215.49,234.23,227.37,194l78.34,40.26.15,0C286.5,251,271.6,258.37,258.39,257.73c-12.79-.62-26.4-8.89-42.9-23.5Zm18.42-61.82,26.44-89L296.9,205.18l-63-32.77ZM336.6,80.07c57.23,57.23,64.54,87,0,151.59s-95.82,55.71-151.56,0-64.57-87,0-151.55S279.37,22.84,336.6,80.07Z" transform="translate(-42.61 -34.36)" fill-rule="evenodd" fill="url(#a)"/></svg>