<svg width="599" height="192" viewBox="0 0 599 192" fill="none" xmlns="http://www.w3.org/2000/svg">
<g clip-path="url(#clip0_1_24)">
<path d="M164.673 74.015H109.701L137.936 41.523H154.994V48.4926H140.446L124.327 67.0454H164.673V74.015Z" fill="#919826"/>
<path d="M156.748 147.161H136.761L108.531 114.662H165.423V121.631H123.158L139.271 140.184H156.748V147.161Z" fill="#919826"/>
<path d="M84.6637 90.3662L70.7988 74.4006V0H76.8541V71.5118L84.6637 80.5078L92.5404 71.4417L92.7415 0.329548L98.7967 0.357594L98.5896 74.3445L84.6637 90.3662Z" fill="#808080"/>
<path d="M66.4249 69.3662L38.1956 36.8743V12.5508H44.2508V33.9855L60.3636 52.5313V2.1666H66.4249V69.3662Z" fill="#808080"/>
<path d="M101.739 70.7195V2.41902H107.794V53.8845L123.913 35.3317V13.1609H129.968V38.2205L101.739 70.7195Z" fill="#808080"/>
<path d="M167.007 111.268L105.382 111.036L91.4561 95.0079L105.327 79.0493H166.818V86.0189H107.837L100.027 95.0149L107.898 104.074L167.025 104.291L167.007 111.268Z" fill="#919826"/>
<path d="M63.6653 108.954H0V101.984H61.1555L68.9713 92.9885L61.0946 83.9294L0.724923 83.7051L0.743199 76.7285L63.6166 76.9669L77.5364 92.9885L63.6653 108.954Z" fill="#808080"/>
<path d="M31.0255 149.103H10.1307V142.126H28.5157L44.6285 123.58H1.65698V116.604H59.2549L31.0255 149.103Z" fill="#808080"/>
<path d="M60.4671 73.3419H2.7413V66.3653H45.8407L29.7279 47.8194H12.6283V40.8499H32.2317L60.4671 73.3419Z" fill="#808080"/>
<path d="M76.2571 192L70.1957 191.979L70.409 117.894L84.3287 101.872L98.1997 117.838V191.825H92.1384V120.727L84.3287 111.731L76.4581 120.797L76.2571 192Z" fill="#808080"/>
<path d="M108.629 189.392H102.574V122.865L130.803 155.364V178.327H124.748V158.253L108.629 139.707V189.392Z" fill="#808080"/>
<path d="M67.2595 190.135H61.1982V138.354L45.0854 156.907V180.073H39.024V154.018L67.2595 121.519V190.135Z" fill="#808080"/>
<path d="M219.067 41.4809H201.724V134.806H219.067V41.4809Z" fill="#D2D2D2"/>
<path d="M270.981 134.813V92.2453C270.981 82.464 268.112 79.0283 260.187 79.0283C257.427 79.0283 254.448 79.4209 250.653 80.3535V134.82H233.882V66.5966H250.19V70.9579C260.759 66.3302 264.658 65.1452 269.83 65.1452C275.459 65.1452 280.856 67.7886 283.725 71.8904C286.71 76.1185 287.746 80.8794 287.746 90.5274V134.813H270.981Z" fill="#D2D2D2"/>
<path d="M321.287 135.739C308.08 135.739 303.256 130.185 303.256 115.117V77.8363H295.909V66.5966H303.256V52.1877L320.026 45.3163V66.5966H337.138V77.8363H320.026V112.207C320.026 120.011 322.207 122.522 329.213 122.522C331.625 122.522 333.465 122.388 337.138 121.729V132.303C328.293 134.946 324.851 135.739 321.293 135.739" fill="#D2D2D2"/>
<path d="M359.075 104.144C359.075 118.16 364.241 123.447 378.026 123.447C382.388 123.447 387.097 123.047 393.298 122.122V132.036C381.815 134.946 375.839 136.005 371.362 136.005C352.642 136.005 342.42 123.973 342.42 101.893C342.42 79.8136 353.214 65.2785 370.789 65.2785C383.076 65.2785 391.233 71.624 394.45 83.7822C395.711 88.2767 396.058 92.5047 396.058 104.137H359.075V104.144ZM369.869 75.5926C362.401 75.5926 359.075 81.1458 359.075 93.4372H379.635C379.635 80.2203 377.106 75.5926 369.875 75.5926" fill="#D2D2D2"/>
<path d="M432.237 80.2203C429.941 80.2203 426.036 80.7462 423.855 81.4123V134.813H407.084V66.5966H423.392V71.7572C430.172 67.9218 435.91 65.6711 438.439 65.6711C440.967 65.6711 442.916 66.0708 444.981 67.2557V83.2493C441.076 81.1318 437.062 80.2063 432.237 80.2063" fill="#D2D2D2"/>
<path d="M483.92 44.6572C476.683 44.6572 474.271 47.1674 474.271 54.9713V66.6037H487.021V77.8433H474.271V134.82H457.5V77.8363H450.147V66.5967H457.5V54.0388C457.5 39.2372 463.476 32.3588 476.683 32.3588C480.125 32.3588 483 32.8846 490.926 35.0022V45.0498C488.745 44.7834 486.217 44.6502 483.92 44.6502" fill="#D2D2D2"/>
<path d="M525.265 134.806V130.445C516.304 134.673 512.862 135.732 508.494 135.732C497.584 135.732 490.463 127.535 490.463 114.977C490.463 102.419 496.78 95.1481 509.524 93.8299C514.348 93.304 518.942 93.0376 524.796 93.0376V87.3511C524.796 80.6129 521.811 77.9695 514.458 77.9695C508.945 77.9695 501.824 78.7619 495.622 80.0871V69.9061C507.105 66.6037 514.342 65.2785 519.965 65.2785C526.745 65.2785 532.484 67.1295 535.816 70.5652C539.489 74.2674 540.872 79.421 540.872 89.7351V134.806H525.253H525.265ZM524.808 102.952C519.411 103.218 517.918 103.219 515.39 103.611C509.993 104.537 507.124 107.839 507.124 113.392C507.124 119.871 510.565 123.174 517.23 123.174C519.642 123.174 522.396 122.774 524.808 122.115V102.945V102.952Z" fill="#D2D2D2"/>
<path d="M549.614 134.813V122.914L578.903 77.8363H551.454V66.5966H597.508V77.9695L568.102 123.573H599V134.813H549.614Z" fill="#D2D2D2"/>
</g>
<defs>
<clipPath id="clip0_1_24">
<rect width="599" height="192" fill="white"/>
</clipPath>
</defs>
</svg>
