<?xml version="1.0" encoding="UTF-8"?><svg id="a" xmlns="http://www.w3.org/2000/svg" width="983.29" height="273.83" viewBox="0 0 983.29 273.83"><polygon points="270.32 105.56 180.08 105.56 226.43 59.22 254.43 59.22 254.43 69.16 230.55 69.16 204.09 95.62 270.32 95.62 270.32 105.56" fill="#919826"/><polygon points="257.31 209.88 224.5 209.88 178.16 163.53 271.55 163.53 271.55 173.47 202.17 173.47 228.62 199.93 257.31 199.93 257.31 209.88" fill="#919826"/><polygon points="138.98 128.88 116.22 106.11 116.22 0 126.16 0 126.16 101.99 138.98 114.82 151.91 101.89 152.24 .47 162.18 .51 161.84 106.03 138.98 128.88" fill="gray"/><polygon points="109.04 98.93 62.7 52.59 62.7 17.9 72.64 17.9 72.64 48.47 99.09 74.92 99.09 3.09 109.04 3.09 109.04 98.93" fill="gray"/><polygon points="167.01 100.86 167.01 3.45 176.95 3.45 176.95 76.85 203.41 50.39 203.41 18.77 213.35 18.77 213.35 54.51 167.01 100.86" fill="gray"/><polygon points="274.15 158.69 172.99 158.36 150.13 135.5 172.9 112.74 273.84 112.74 273.84 122.68 177.02 122.68 164.2 135.51 177.12 148.43 274.18 148.74 274.15 158.69" fill="#919826"/><polygon points="104.51 155.39 0 155.39 0 145.45 100.39 145.45 113.22 132.62 100.29 119.7 1.19 119.38 1.22 109.43 104.43 109.77 127.28 132.62 104.51 155.39" fill="gray"/><polygon points="50.93 212.65 16.63 212.65 16.63 202.7 46.81 202.7 73.26 176.25 2.72 176.25 2.72 166.3 97.27 166.3 50.93 212.65" fill="gray"/><polygon points="99.26 104.6 4.5 104.6 4.5 94.65 75.25 94.65 48.8 68.2 20.73 68.2 20.73 58.26 52.91 58.26 99.26 104.6" fill="gray"/><polygon points="125.18 273.83 115.23 273.8 115.58 168.14 138.43 145.29 161.2 168.06 161.2 273.58 151.25 273.58 151.25 172.18 138.43 159.35 125.51 172.28 125.18 273.83" fill="gray"/><polygon points="178.32 270.11 168.38 270.11 168.38 175.23 214.72 221.58 214.72 254.33 204.78 254.33 204.78 225.7 178.32 199.25 178.32 270.11" fill="gray"/><polygon points="110.41 271.17 100.46 271.17 100.46 197.32 74.01 223.78 74.01 256.82 64.06 256.82 64.06 219.66 110.41 173.31 110.41 271.17" fill="gray"/><rect x="331.14" y="59.16" width="28.47" height="133.1" fill="gray"/><path d="M444.83,192.27v-60.71c0-13.95-4.71-18.85-17.72-18.85-4.53,0-9.42,.56-15.65,1.89v77.68h-27.53V94.98h26.77v6.22c17.35-6.6,23.75-8.29,32.24-8.29,9.24,0,18.1,3.77,22.81,9.62,4.9,6.03,6.6,12.82,6.6,26.58v63.16h-27.52Z" fill="gray"/><path d="M527.41,193.59c-21.68,0-29.6-7.92-29.6-29.41v-53.17h-12.06v-16.03h12.06v-20.55l27.53-9.8v30.35h28.09v16.03h-28.09v49.02c0,11.13,3.58,14.71,15.08,14.71,3.96,0,6.98-.19,13.01-1.13v15.08c-14.52,3.77-20.17,4.9-26.01,4.9" fill="gray"/><path d="M589.44,148.53c0,19.99,8.48,27.53,31.11,27.53,7.16,0,14.89-.57,25.07-1.89v14.14c-18.85,4.15-28.66,5.66-36.01,5.66-30.73,0-47.51-17.16-47.51-48.65s17.72-52.22,46.57-52.22c20.17,0,33.56,9.05,38.84,26.39,2.07,6.41,2.64,12.44,2.64,29.03h-60.71Zm17.72-40.72c-12.26,0-17.72,7.92-17.72,25.45h33.75c0-18.85-4.15-25.45-16.02-25.45" fill="gray"/><path d="M709.54,114.41c-3.77,0-10.18,.75-13.76,1.7v76.16h-27.53V94.98h26.77v7.36c11.13-5.47,20.55-8.68,24.7-8.68s7.35,.57,10.74,2.26v22.81c-6.41-3.02-13-4.34-20.92-4.34" fill="gray"/><path d="M794.38,63.69c-11.88,0-15.84,3.58-15.84,14.71v16.59h20.93v16.03h-20.93v81.26h-27.53V111.01h-12.07v-16.03h12.07v-17.91c0-21.11,9.81-30.92,31.49-30.92,5.65,0,10.37,.75,23.38,3.77v14.33c-3.58-.38-7.73-.57-11.5-.57" fill="gray"/><path d="M862.25,192.26v-6.22c-14.71,6.03-20.36,7.54-27.53,7.54-17.91,0-29.6-11.69-29.6-29.6s10.37-28.28,31.29-30.16c7.92-.75,15.46-1.13,25.07-1.13v-8.11c0-9.61-4.9-13.38-16.97-13.38-9.05,0-20.74,1.13-30.92,3.02v-14.52c18.85-4.71,30.73-6.6,39.96-6.6,11.13,0,20.55,2.64,26.02,7.54,6.03,5.28,8.3,12.63,8.3,27.34v64.28h-25.64Zm-.75-45.43c-8.86,.38-11.31,.38-15.46,.94-8.86,1.32-13.57,6.03-13.57,13.95,0,9.24,5.65,13.95,16.59,13.95,3.96,0,8.48-.57,12.44-1.51v-27.34Z" fill="gray"/><polygon points="902.22 192.27 902.22 175.3 950.3 111.01 905.24 111.01 905.24 94.98 980.84 94.98 980.84 111.2 932.57 176.24 983.29 176.24 983.29 192.27 902.22 192.27" fill="gray"/></svg>